<svg width="168" height="98" viewBox="0 0 168 98" fill="none" xmlns="http://www.w3.org/2000/svg">
<path fill-rule="evenodd" clip-rule="evenodd" d="M115.023 19.7239C118.885 18.4864 123.001 17.8182 127.273 17.8182C149.414 17.8182 167.363 35.7675 167.363 57.9091C167.363 80.0506 149.414 97.9999 127.273 98L127.273 98L75.7462 98C75.7398 98 75.7334 98 75.7271 98C75.7207 98 75.7143 98 75.7079 98H28H24.1818V97.7418C10.5241 95.8796 0 84.1688 0 70C0 54.7963 12.1176 42.4228 27.2218 42.0106C30.6138 18.2594 51.0381 0 75.7271 0C91.8136 0 106.09 7.7519 115.023 19.7239Z" fill="black"/>
</svg>
