<svg width="18" height="15" viewBox="0 0 18 15" fill="none" xmlns="http://www.w3.org/2000/svg">
<path d="M1.12072 3.57586L1.12111 3.57439C1.27446 2.99273 1.57687 2.48377 2.05148 2.0356L2.05162 2.03547C2.54953 1.56513 3.10072 1.26606 3.71528 1.11858L3.71528 1.11859L3.71939 1.11758C4.36114 0.960687 4.99251 0.961041 5.62742 1.11724L5.62883 1.11758C6.25331 1.27025 6.80911 1.57176 7.307 2.03826L7.30901 2.04014L8.31918 2.98143L9.00086 3.61663L9.68258 2.98147L10.6921 2.04094C10.6922 2.04078 10.6924 2.04061 10.6926 2.04045C11.1974 1.57131 11.7549 1.26964 12.3745 1.11724L12.3745 1.11723C13.0099 0.960922 13.6382 0.960922 14.2736 1.11723L14.2736 1.11726L14.2805 1.11891C14.9006 1.26678 15.4536 1.56622 15.9503 2.03547L15.9504 2.03558C16.425 2.48376 16.7274 2.99272 16.8807 3.57435L16.8812 3.57595C17.0394 4.17223 17.0402 4.76664 16.8804 5.37636L16.8789 5.38222C16.7295 5.96639 16.4269 6.48484 15.9445 6.94797L9.00091 13.6138L2.05746 6.94798C2.05746 6.94798 2.05746 6.94798 2.05746 6.94798C1.57463 6.48445 1.26882 5.96491 1.11483 5.37932C0.959351 4.76916 0.96219 4.17351 1.12072 3.57586Z" fill="black" stroke="black" stroke-width="2"/>
</svg>
