<svg width="124" height="42" viewBox="0 0 124 42" fill="none" xmlns="http://www.w3.org/2000/svg">
<path fill-rule="evenodd" clip-rule="evenodd" d="M24.25 1C24.25 0.447715 23.8023 0 23.25 0C22.6977 0 22.25 0.447715 22.25 1V4.83579L19.5377 2.12346C19.1471 1.73294 18.514 1.73294 18.1235 2.12346C17.7329 2.51398 17.7329 3.14715 18.1235 3.53767L20.8358 6.25H17C16.4477 6.25 16 6.69772 16 7.25C16 7.80228 16.4477 8.25 17 8.25H20.8358L18.1235 10.9623C17.7329 11.3529 17.7329 11.986 18.1235 12.3765C18.514 12.7671 19.1471 12.7671 19.5377 12.3765L22.25 9.66421V13.5C22.25 14.0523 22.6977 14.5 23.25 14.5C23.8023 14.5 24.25 14.0523 24.25 13.5V9.66421L26.9623 12.3765C27.3528 12.767 27.986 12.767 28.3765 12.3765C28.767 11.986 28.767 11.3528 28.3765 10.9623L25.6642 8.25H29.5C30.0523 8.25 30.5 7.80228 30.5 7.25C30.5 6.69772 30.0523 6.25 29.5 6.25H25.6642L28.3765 3.53771C28.767 3.14718 28.767 2.51402 28.3765 2.12349C27.986 1.73297 27.3528 1.73297 26.9623 2.12349L24.25 4.83579V1Z" fill="url(#paint0_linear_2595_6842)"/>
<path fill-rule="evenodd" clip-rule="evenodd" d="M8.25 25C8.25 24.4477 7.80228 24 7.25 24C6.69772 24 6.25 24.4477 6.25 25V28.8358L3.53767 26.1235C3.14715 25.7329 2.51398 25.7329 2.12346 26.1235C1.73294 26.514 1.73294 27.1471 2.12346 27.5377L4.83579 30.25H1C0.447715 30.25 0 30.6977 0 31.25C0 31.8023 0.447715 32.25 1 32.25H4.83579L2.12346 34.9623C1.73294 35.3529 1.73294 35.986 2.12346 36.3765C2.51398 36.7671 3.14715 36.7671 3.53767 36.3765L6.25 33.6642V37.5C6.25 38.0523 6.69772 38.5 7.25 38.5C7.80228 38.5 8.25 38.0523 8.25 37.5V33.6642L10.9623 36.3765C11.3528 36.767 11.986 36.767 12.3765 36.3765C12.767 35.986 12.767 35.3528 12.3765 34.9623L9.66421 32.25H13.5C14.0523 32.25 14.5 31.8023 14.5 31.25C14.5 30.6977 14.0523 30.25 13.5 30.25H9.66421L12.3765 27.5377C12.767 27.1472 12.767 26.514 12.3765 26.1235C11.986 25.733 11.3528 25.733 10.9623 26.1235L8.25 28.8358V25Z" fill="url(#paint1_linear_2595_6842)"/>
<path fill-rule="evenodd" clip-rule="evenodd" d="M38.25 28C38.25 27.4477 37.8023 27 37.25 27C36.6977 27 36.25 27.4477 36.25 28V31.8358L33.5377 29.1235C33.1471 28.7329 32.514 28.7329 32.1235 29.1235C31.7329 29.514 31.7329 30.1471 32.1235 30.5377L34.8358 33.25H31C30.4477 33.25 30 33.6977 30 34.25C30 34.8023 30.4477 35.25 31 35.25H34.8358L32.1235 37.9623C31.7329 38.3529 31.7329 38.986 32.1235 39.3765C32.514 39.7671 33.1471 39.7671 33.5377 39.3765L36.25 36.6642V40.5C36.25 41.0523 36.6977 41.5 37.25 41.5C37.8023 41.5 38.25 41.0523 38.25 40.5V36.6642L40.9623 39.3765C41.3528 39.767 41.986 39.767 42.3765 39.3765C42.767 38.986 42.767 38.3528 42.3765 37.9623L39.6642 35.25H43.5C44.0523 35.25 44.5 34.8023 44.5 34.25C44.5 33.6977 44.0523 33.25 43.5 33.25H39.6642L42.3765 30.5377C42.767 30.1472 42.767 29.514 42.3765 29.1235C41.986 28.733 41.3528 28.733 40.9623 29.1235L38.25 31.8358V28Z" fill="url(#paint2_linear_2595_6842)"/>
<path fill-rule="evenodd" clip-rule="evenodd" d="M56.25 10C56.25 9.44772 55.8023 9 55.25 9C54.6977 9 54.25 9.44772 54.25 10V13.8358L51.5377 11.1235C51.1471 10.7329 50.514 10.7329 50.1235 11.1235C49.7329 11.514 49.7329 12.1471 50.1235 12.5377L52.8358 15.25H49C48.4477 15.25 48 15.6977 48 16.25C48 16.8023 48.4477 17.25 49 17.25H52.8358L50.1235 19.9623C49.7329 20.3529 49.7329 20.986 50.1235 21.3765C50.514 21.7671 51.1471 21.7671 51.5377 21.3765L54.25 18.6642V22.5C54.25 23.0523 54.6977 23.5 55.25 23.5C55.8023 23.5 56.25 23.0523 56.25 22.5V18.6642L58.9623 21.3765C59.3528 21.767 59.986 21.767 60.3765 21.3765C60.767 20.986 60.767 20.3528 60.3765 19.9623L57.6642 17.25H61.5C62.0523 17.25 62.5 16.8023 62.5 16.25C62.5 15.6977 62.0523 15.25 61.5 15.25H57.6642L60.3765 12.5377C60.767 12.1472 60.767 11.514 60.3765 11.1235C59.986 10.733 59.3528 10.733 58.9623 11.1235L56.25 13.8358V10Z" fill="url(#paint3_linear_2595_6842)"/>
<path fill-rule="evenodd" clip-rule="evenodd" d="M90.25 1C90.25 0.447715 89.8023 0 89.25 0C88.6977 0 88.25 0.447715 88.25 1V4.83579L85.5377 2.12346C85.1471 1.73294 84.514 1.73294 84.1235 2.12346C83.7329 2.51398 83.7329 3.14715 84.1235 3.53767L86.8358 6.25H83C82.4477 6.25 82 6.69772 82 7.25C82 7.80228 82.4477 8.25 83 8.25H86.8358L84.1235 10.9623C83.7329 11.3529 83.7329 11.986 84.1235 12.3765C84.514 12.7671 85.1471 12.7671 85.5377 12.3765L88.25 9.66421V13.5C88.25 14.0523 88.6977 14.5 89.25 14.5C89.8023 14.5 90.25 14.0523 90.25 13.5V9.66421L92.9623 12.3765C93.3528 12.767 93.986 12.767 94.3765 12.3765C94.767 11.986 94.767 11.3528 94.3765 10.9623L91.6642 8.25H95.5C96.0523 8.25 96.5 7.80228 96.5 7.25C96.5 6.69772 96.0523 6.25 95.5 6.25H91.6642L94.3765 3.53771C94.767 3.14718 94.767 2.51402 94.3765 2.12349C93.986 1.73297 93.3528 1.73297 92.9623 2.12349L90.25 4.83579V1Z" fill="url(#paint4_linear_2595_6842)"/>
<path fill-rule="evenodd" clip-rule="evenodd" d="M85.25 25C85.25 24.4477 84.8023 24 84.25 24C83.6977 24 83.25 24.4477 83.25 25V28.8358L80.5377 26.1235C80.1471 25.7329 79.514 25.7329 79.1235 26.1235C78.7329 26.514 78.7329 27.1471 79.1235 27.5377L81.8358 30.25H78C77.4477 30.25 77 30.6977 77 31.25C77 31.8023 77.4477 32.25 78 32.25H81.8358L79.1235 34.9623C78.7329 35.3529 78.7329 35.986 79.1235 36.3765C79.514 36.7671 80.1471 36.7671 80.5377 36.3765L83.25 33.6642V37.5C83.25 38.0523 83.6977 38.5 84.25 38.5C84.8023 38.5 85.25 38.0523 85.25 37.5V33.6642L87.9623 36.3765C88.3528 36.767 88.986 36.767 89.3765 36.3765C89.767 35.986 89.767 35.3528 89.3765 34.9623L86.6642 32.25H90.5C91.0523 32.25 91.5 31.8023 91.5 31.25C91.5 30.6977 91.0523 30.25 90.5 30.25H86.6642L89.3765 27.5377C89.767 27.1472 89.767 26.514 89.3765 26.1235C88.986 25.733 88.3528 25.733 87.9623 26.1235L85.25 28.8358V25Z" fill="url(#paint5_linear_2595_6842)"/>
<path fill-rule="evenodd" clip-rule="evenodd" d="M117.25 13C117.25 12.4477 116.802 12 116.25 12C115.698 12 115.25 12.4477 115.25 13V16.8358L112.538 14.1235C112.147 13.7329 111.514 13.7329 111.123 14.1235C110.733 14.514 110.733 15.1471 111.123 15.5377L113.836 18.25H110C109.448 18.25 109 18.6977 109 19.25C109 19.8023 109.448 20.25 110 20.25H113.836L111.123 22.9623C110.733 23.3529 110.733 23.986 111.123 24.3765C111.514 24.7671 112.147 24.7671 112.538 24.3765L115.25 21.6642V25.5C115.25 26.0523 115.698 26.5 116.25 26.5C116.802 26.5 117.25 26.0523 117.25 25.5V21.6642L119.962 24.3765C120.353 24.767 120.986 24.767 121.377 24.3765C121.767 23.986 121.767 23.3528 121.377 22.9623L118.664 20.25H122.5C123.052 20.25 123.5 19.8023 123.5 19.25C123.5 18.6977 123.052 18.25 122.5 18.25H118.664L121.377 15.5377C121.767 15.1472 121.767 14.514 121.377 14.1235C120.986 13.733 120.353 13.733 119.962 14.1235L117.25 16.8358V13Z" fill="url(#paint6_linear_2595_6842)"/>
<defs>
<linearGradient id="paint0_linear_2595_6842" x1="23.25" y1="-5" x2="23.25" y2="14.5" gradientUnits="userSpaceOnUse">
<stop stop-color="white" stop-opacity="0"/>
<stop offset="1" stop-color="white"/>
</linearGradient>
<linearGradient id="paint1_linear_2595_6842" x1="7.25" y1="19" x2="7.25" y2="38.5" gradientUnits="userSpaceOnUse">
<stop stop-color="white" stop-opacity="0"/>
<stop offset="1" stop-color="white"/>
</linearGradient>
<linearGradient id="paint2_linear_2595_6842" x1="37.25" y1="22" x2="37.25" y2="41.5" gradientUnits="userSpaceOnUse">
<stop stop-color="white" stop-opacity="0"/>
<stop offset="1" stop-color="white"/>
</linearGradient>
<linearGradient id="paint3_linear_2595_6842" x1="55.25" y1="4" x2="55.25" y2="23.5" gradientUnits="userSpaceOnUse">
<stop stop-color="white" stop-opacity="0"/>
<stop offset="1" stop-color="white"/>
</linearGradient>
<linearGradient id="paint4_linear_2595_6842" x1="89.25" y1="-5" x2="89.25" y2="14.5" gradientUnits="userSpaceOnUse">
<stop stop-color="white" stop-opacity="0"/>
<stop offset="1" stop-color="white"/>
</linearGradient>
<linearGradient id="paint5_linear_2595_6842" x1="84.25" y1="19" x2="84.25" y2="38.5" gradientUnits="userSpaceOnUse">
<stop stop-color="white" stop-opacity="0"/>
<stop offset="1" stop-color="white"/>
</linearGradient>
<linearGradient id="paint6_linear_2595_6842" x1="116.25" y1="7" x2="116.25" y2="26.5" gradientUnits="userSpaceOnUse">
<stop stop-color="white" stop-opacity="0"/>
<stop offset="1" stop-color="white"/>
</linearGradient>
</defs>
</svg>
